<svg xmlns="http://www.w3.org/2000/svg" viewBox="0 0 80 67.69"><title>cart</title><path fill="white" d="M80,9.23V33.84a3.08,3.08,0,0,1-.77,2,3,3,0,0,1-2,1L27.07,42.79c0,.22.1.57.21,1s.21.89.29,1.28a5.12,5.12,0,0,1,.12,1,9.19,9.19,0,0,1-1.15,3.08H70.77a3.08,3.08,0,0,1,0,6.15H21.54a2.92,2.92,0,0,1-2.16-.91,3,3,0,0,1-.92-2.17A5.25,5.25,0,0,1,19,50.41c.35-.82.82-1.77,1.42-2.86s.92-1.7,1-1.83L12.88,6.16H3.08A3,3,0,0,1,.91,5.24,3,3,0,0,1,0,3.08,3,3,0,0,1,.91.91,3,3,0,0,1,3.08,0H15.39a3,3,0,0,1,1.36.31,3,3,0,0,1,1,.75,3.71,3.71,0,0,1,.62,1.18,7.22,7.22,0,0,1,.36,1.27c.07.35.15.82.26,1.42s.19,1,.22,1.23H76.92A3.11,3.11,0,0,1,80,9.23Zm-51,48a6.16,6.16,0,0,1-4.35,10.51A6.16,6.16,0,1,1,29,57.18ZM61.54,21.54a3.06,3.06,0,0,0-5.24-2.17l-7.07,7V12.3A3.05,3.05,0,0,0,44,10.15a2.93,2.93,0,0,0-.91,2.15V26.39l-7.07-7a3,3,0,0,0-4.33,0,3,3,0,0,0,0,4.33L44,36a3,3,0,0,0,4.33,0L60.62,23.7A3,3,0,0,0,61.54,21.54ZM72,57.18a6.16,6.16,0,1,1-4.35-1.8A6,6,0,0,1,72,57.18Z"/></svg>