<svg xmlns="http://www.w3.org/2000/svg" viewBox="0 0 74.7 74.94"><title>clean</title><path fill="white" d="M71.73,22.88a37.27,37.27,0,0,1,0,29.16,37.9,37.9,0,0,1-8,12,37.11,37.11,0,0,1-11.91,8,37,37,0,0,1-29,0,37.11,37.11,0,0,1-11.91-8A37.56,37.56,0,0,1,3,52,37.27,37.27,0,0,1,3,22.88a37.58,37.58,0,0,1,8-11.94A37.11,37.11,0,0,1,22.83,3a37,37,0,0,1,29,0,37.11,37.11,0,0,1,11.91,8A37.92,37.92,0,0,1,71.73,22.88ZM15.22,52,51.94,15.32a25.54,25.54,0,0,0-14.59-4.43,26,26,0,0,0-13.28,3.55A26.64,26.64,0,0,0,15.22,52ZM63.8,37.45A25.81,25.81,0,0,0,59.57,23.1L22.91,59.72a26,26,0,0,0,14.44,4.33,25.57,25.57,0,0,0,10.28-2.12,27,27,0,0,0,8.44-5.66,26.37,26.37,0,0,0,5.64-8.49A26.09,26.09,0,0,0,63.8,37.45Z"/></svg>