<svg xmlns="http://www.w3.org/2000/svg" viewBox="0 0 76.022 60" fill="#63dc6f"><path d="M1.841,16.714l4.943-4.943L.307,5.294l-4.943,4.943v2.386H-.545v4.091ZM20.548-12.561a.88.88,0,0,0,.043-1.406.88.88,0,0,0-1.406.043L4.27.99A.88.88,0,0,0,4.227,2.4a.88.88,0,0,0,1.406-.043ZM24,11.345v8.1a11.821,11.821,0,0,1-3.6,8.672,11.821,11.821,0,0,1-8.672,3.6H-23.727a11.821,11.821,0,0,1-8.672-3.6A11.821,11.821,0,0,1-36,19.442V-16.013a11.821,11.821,0,0,1,3.6-8.672,11.821,11.821,0,0,1,8.672-3.6H11.727a11.722,11.722,0,0,1,4.986,1.065,1.292,1.292,0,0,1,.767.98A1.327,1.327,0,0,1,17.1-25l-2.088,2.088a1.246,1.246,0,0,1-1.364.341,7.58,7.58,0,0,0-1.918-.256H-23.727a6.565,6.565,0,0,0-4.815,2,6.565,6.565,0,0,0-2,4.815V19.442a6.565,6.565,0,0,0,2,4.815,6.565,6.565,0,0,0,4.815,2H11.727a6.565,6.565,0,0,0,4.815-2,6.565,6.565,0,0,0,2-4.815V14.072a1.275,1.275,0,0,1,.384-.937l2.727-2.727a1.279,1.279,0,0,1,1.491-.3A1.236,1.236,0,0,1,24,11.345ZM19.909-20.1,32.182-7.831,3.545,20.805H-8.727V8.532Zm18.92,5.625-3.92,3.92L22.636-22.831l3.92-3.92a3.945,3.945,0,0,1,2.9-1.193,3.945,3.945,0,0,1,2.9,1.193l6.477,6.477a3.945,3.945,0,0,1,1.193,2.9A3.945,3.945,0,0,1,38.83-14.479Z" transform="translate(36 28.286)"/></svg>