<svg xmlns="http://www.w3.org/2000/svg" viewBox="0 0 80 62.86"><title>edit</title><path fill="#63DC6F" d="M22.86,4.29v8.57a4.27,4.27,0,0,1-4.29,4.29H4.28a4.13,4.13,0,0,1-3-1.25,4.17,4.17,0,0,1-1.25-3V4.29a4.15,4.15,0,0,1,1.25-3A4.13,4.13,0,0,1,4.28,0H18.57a4.17,4.17,0,0,1,3,1.25A4.15,4.15,0,0,1,22.86,4.29Zm0,22.86v8.57A4.27,4.27,0,0,1,18.57,40H4.28a4.13,4.13,0,0,1-3-1.25,4.13,4.13,0,0,1-1.25-3V27.15a4.13,4.13,0,0,1,1.25-3,4.09,4.09,0,0,1,3-1.25H18.57a4.27,4.27,0,0,1,4.29,4.29Zm0,22.85v8.57a4.27,4.27,0,0,1-4.29,4.29H4.28a4.13,4.13,0,0,1-3-1.25,4.17,4.17,0,0,1-1.25-3V50a4.13,4.13,0,0,1,1.25-3,4.09,4.09,0,0,1,3-1.25H18.57A4.27,4.27,0,0,1,22.86,50ZM80,4.29v8.57a4.27,4.27,0,0,1-4.28,4.29H32.86a4.27,4.27,0,0,1-4.29-4.29V4.29a4.15,4.15,0,0,1,1.25-3,4.15,4.15,0,0,1,3-1.25H75.72a4.14,4.14,0,0,1,3,1.25A4.15,4.15,0,0,1,80,4.29Zm0,22.86v8.57A4.27,4.27,0,0,1,75.72,40H32.86a4.27,4.27,0,0,1-4.29-4.28V27.15a4.27,4.27,0,0,1,4.29-4.29H75.72A4.27,4.27,0,0,1,80,27.15ZM80,50v8.57a4.27,4.27,0,0,1-4.28,4.29H32.86a4.27,4.27,0,0,1-4.29-4.29V50a4.27,4.27,0,0,1,4.29-4.28H75.72A4.27,4.27,0,0,1,80,50Z"/></svg>