<svg xmlns="http://www.w3.org/2000/svg" viewBox="0 0 101.82 80"><title>email</title><path fill="#707070" d="M101.82,9.09V70.91A9.12,9.12,0,0,1,92.73,80H9.09a8.75,8.75,0,0,1-6.42-2.67A8.75,8.75,0,0,1,0,70.91V9.09A8.75,8.75,0,0,1,2.67,2.67,8.75,8.75,0,0,1,9.09,0H92.73a8.75,8.75,0,0,1,6.42,2.67A8.75,8.75,0,0,1,101.82,9.09Zm-7.27,2.1V9.8c0-.17,0-.42,0-.74a1.63,1.63,0,0,0-.17-.71L94,7.84a1,1,0,0,0-.51-.43,2.1,2.1,0,0,0-.79-.14H9.09A1.84,1.84,0,0,0,7.27,9.09q0,9.54,8.35,16.14,11,8.64,22.79,18l2,1.67c1.1.93,2,1.64,2.61,2.14s1.49,1.09,2.53,1.79a15.09,15.09,0,0,0,2.87,1.56,6.71,6.71,0,0,0,2.44.51H51a6.76,6.76,0,0,0,2.44-.51,15.09,15.09,0,0,0,2.87-1.56c1-.7,1.88-1.3,2.53-1.79s1.51-1.21,2.61-2.14l2-1.67q11.82-9.37,22.78-18a26.58,26.58,0,0,0,5.71-6.57A14.1,14.1,0,0,0,94.55,11.19Zm0,59.72V27.27A33,33,0,0,1,90.63,31Q75.39,42.74,66.42,50.23c-1.93,1.63-3.5,2.89-4.72,3.8a26.31,26.31,0,0,1-4.91,2.76A14.21,14.21,0,0,1,51,58.18h-.12A14.21,14.21,0,0,1,45,56.79,26.44,26.44,0,0,1,40.11,54c-1.21-.91-2.78-2.17-4.71-3.8q-9-7.5-24.21-19.21a32.24,32.24,0,0,1-3.92-3.75V70.91a1.84,1.84,0,0,0,1.82,1.82H92.73a1.84,1.84,0,0,0,1.82-1.82Z"/></svg>