<svg xmlns="http://www.w3.org/2000/svg" viewBox="0 0 80 80"><title>info</title><path fill="#808080" d="M74.63,19.92A39.1,39.1,0,0,1,80,40a39.1,39.1,0,0,1-5.37,20.08A39.81,39.81,0,0,1,60.08,74.63,39.1,39.1,0,0,1,40,80a39.1,39.1,0,0,1-20.08-5.37A39.76,39.76,0,0,1,5.36,60.08,39.09,39.09,0,0,1,0,40,39.09,39.09,0,0,1,5.36,19.92,39.76,39.76,0,0,1,19.92,5.37,39.1,39.1,0,0,1,40,0,39.1,39.1,0,0,1,60.08,5.37,39.81,39.81,0,0,1,74.63,19.92ZM53.33,65V56.66A1.61,1.61,0,0,0,51.66,55h-5V28.33a1.62,1.62,0,0,0-.47-1.2A1.6,1.6,0,0,0,45,26.67H28.33a1.6,1.6,0,0,0-1.19.46,1.62,1.62,0,0,0-.47,1.2v8.34a1.62,1.62,0,0,0,.47,1.2,1.6,1.6,0,0,0,1.19.46h5V55h-5a1.6,1.6,0,0,0-1.19.47,1.58,1.58,0,0,0-.47,1.19V65a1.61,1.61,0,0,0,1.66,1.67H51.66A1.61,1.61,0,0,0,53.33,65ZM46.66,18.33V10A1.59,1.59,0,0,0,45,8.34H35A1.58,1.58,0,0,0,33.34,10v8.33A1.59,1.59,0,0,0,35,20H45a1.61,1.61,0,0,0,1.66-1.67Z"/></svg>