<svg xmlns="http://www.w3.org/2000/svg" viewBox="0 0 80 80"><title>instagram</title><path fill="#E1306C" d="M80,40q0,11.93-.27,16.51-.51,10.83-6.45,16.77T56.51,79.74Q51.92,80,40,80c-8,0-13.45-.09-16.51-.26q-10.83-.52-16.77-6.46T.26,56.51Q0,51.92,0,40T.26,23.49Q.78,12.66,6.72,6.72T23.49.26C26.55.09,32,0,40,0S53.45.09,56.51.26Q67.34.78,73.28,6.72t6.45,16.77Q80,28.08,80,40ZM44,7.16l-4,0-4,0h-5.5c-1.25,0-2.93.07-5,.16a41.94,41.94,0,0,0-5.37.52,21,21,0,0,0-3.72,1A13.68,13.68,0,0,0,8.8,16.41a21,21,0,0,0-1,3.72,43.64,43.64,0,0,0-.53,5.36c-.08,2.11-.13,3.78-.15,5s0,3.08,0,5.5,0,3.74,0,4,0,1.57,0,4,0,4.25,0,5.5.07,2.92.15,5a43.62,43.62,0,0,0,.53,5.37,21,21,0,0,0,1,3.72,13.18,13.18,0,0,0,3,4.58,13.32,13.32,0,0,0,4.58,3,21,21,0,0,0,3.72,1,41.94,41.94,0,0,0,5.37.52c2.09.09,3.77.14,5,.16H36l4,0,4,0h5.49c1.26,0,2.93-.07,5-.16a41.94,41.94,0,0,0,5.37-.52,21,21,0,0,0,3.72-1,13.76,13.76,0,0,0,7.61-7.61,21,21,0,0,0,1-3.72,41.94,41.94,0,0,0,.52-5.37c.08-2.1.13-3.77.16-5s0-3.08,0-5.5,0-3.74,0-4,0-1.57,0-4,0-4.25,0-5.5-.08-2.92-.16-5a42,42,0,0,0-.52-5.36,21,21,0,0,0-1-3.72A13.68,13.68,0,0,0,63.59,8.8a21,21,0,0,0-3.72-1,41.94,41.94,0,0,0-5.37-.52c-2.1-.09-3.77-.14-5-.16ZM54.53,25.47a19.8,19.8,0,0,1,6,14.53A20.45,20.45,0,0,1,40,60.52a19.78,19.78,0,0,1-14.53-6,19.76,19.76,0,0,1-6-14.53,19.76,19.76,0,0,1,6-14.53,19.78,19.78,0,0,1,14.53-6A19.8,19.8,0,0,1,54.53,25.47Zm-5.11,24A12.84,12.84,0,0,0,53.33,40,13.33,13.33,0,0,0,40,26.67,13.32,13.32,0,0,0,26.67,40,13.32,13.32,0,0,0,40,53.33,12.83,12.83,0,0,0,49.42,49.43ZM64.73,15.26a4.74,4.74,0,0,1,0,6.77,4.79,4.79,0,0,1-8.17-3.38,4.78,4.78,0,0,1,8.17-3.39Z"/></svg>