<svg xmlns="http://www.w3.org/2000/svg" viewBox="0 0 80 80"><title>linkedin</title><path fill="#0A66C2" d="M80,15V65A15,15,0,0,1,65,80H15A14.46,14.46,0,0,1,4.4,75.6,14.46,14.46,0,0,1,0,65V15A14.48,14.48,0,0,1,4.4,4.4,14.46,14.46,0,0,1,15,0H65A14.48,14.48,0,0,1,75.6,4.4,14.48,14.48,0,0,1,80,15ZM25.16,19.69a6.16,6.16,0,0,0-1.88-4.48,6.65,6.65,0,0,0-4.84-1.77,6.91,6.91,0,0,0-4.92,1.77,5.85,5.85,0,0,0-1.91,4.48,6,6,0,0,0,1.85,4.45,6.63,6.63,0,0,0,4.82,1.8h0a6.85,6.85,0,0,0,5-1.8A5.92,5.92,0,0,0,25.16,19.69ZM12.34,67h12V30.83h-12Zm43.28,0h12V46.25q0-8-3.81-12.14A13,13,0,0,0,53.8,30a12.1,12.1,0,0,0-10.88,6.09H43V30.83H31q.15,3.45,0,36.15H43V46.77a8.45,8.45,0,0,1,.37-2.92,8,8,0,0,1,2.34-3.09,5.88,5.88,0,0,1,3.85-1.28q6,0,6,8.18Z"/></svg>