<svg xmlns="http://www.w3.org/2000/svg" viewBox="0 0 60 60"><title>remove</title><path fill="#FF6666" d="M60,48.28a4.7,4.7,0,0,1-1.41,3.43l-6.88,6.87a4.86,4.86,0,0,1-6.87,0L30,43.74,15.15,58.58A4.69,4.69,0,0,1,11.72,60a4.67,4.67,0,0,1-3.43-1.42L1.41,51.71a4.88,4.88,0,0,1,0-6.86L16.26,30,1.41,15.15A4.68,4.68,0,0,1,0,11.72,4.7,4.7,0,0,1,1.41,8.28L8.29,1.41A4.66,4.66,0,0,1,11.72,0a4.68,4.68,0,0,1,3.43,1.41L30,16.26,44.84,1.41a4.89,4.89,0,0,1,6.87,0l6.88,6.87A4.74,4.74,0,0,1,60,11.72a4.72,4.72,0,0,1-1.41,3.43L43.74,30,58.59,44.85A4.72,4.72,0,0,1,60,48.28Z"/></svg>