<svg xmlns="http://www.w3.org/2000/svg" viewBox="0 0 221.72 100"><defs><style>.cls-1{fill:#508484;}</style></defs><title>smart-shoplist-imagotipo</title><path class="cls-1" d="M53.5,78.5H3.5A3.5,3.5,0,0,1,0,75V25a3.5,3.5,0,0,1,3.5-3.5h50A3.5,3.5,0,0,1,57,25V75A3.5,3.5,0,0,1,53.5,78.5ZM7,71.5H50v-43H7Z"/><polygon fill="#97db4f" points="16 37.5 28.5 50 78.5 0 78.5 12.5 28.5 62.5 16 50 16 37.5"/><circle class="cls-1" cx="10.25" cy="93.25" r="6.75"/><circle class="cls-1" cx="47" cy="93.25" r="6.75"/><path class="cls-1" d="M53.5,91H3.5a3.5,3.5,0,0,1,0-7H50V78.5H3.5a3.5,3.5,0,0,1,0-7h50A3.5,3.5,0,0,1,57,75V87.5A3.5,3.5,0,0,1,53.5,91Z"/><path class="cls-1" d="M86.25,73.26a19.25,19.25,0,0,1-7.75-4.64l2-4a19.52,19.52,0,0,0,7.1,4.32,25.82,25.82,0,0,0,9.12,1.65q6.6,0,9.9-2.43A7.45,7.45,0,0,0,110,61.88a6.27,6.27,0,0,0-1.8-4.7,12,12,0,0,0-4.39-2.71,72,72,0,0,0-7.22-2.07,73.73,73.73,0,0,1-8.86-2.7,14.57,14.57,0,0,1-5.65-4,10.59,10.59,0,0,1-2.35-7.23,12.37,12.37,0,0,1,2-6.78,13.61,13.61,0,0,1,6-4.88A24.89,24.89,0,0,1,97.81,25a29.94,29.94,0,0,1,8.25,1.16,23.49,23.49,0,0,1,7,3.19l-1.75,4.14a25,25,0,0,0-13.48-4.07q-6.47,0-9.73,2.49a7.78,7.78,0,0,0-3.27,6.43,6.38,6.38,0,0,0,1.8,4.74,11.73,11.73,0,0,0,4.49,2.74q2.7.94,7.27,2.07a74.44,74.44,0,0,1,8.74,2.63,14.42,14.42,0,0,1,5.65,3.93,10.44,10.44,0,0,1,2.32,7.13,12.16,12.16,0,0,1-2,6.78,13.52,13.52,0,0,1-6.15,4.84A25.52,25.52,0,0,1,96.75,75,31.61,31.61,0,0,1,86.25,73.26Z"/><path class="cls-1" d="M140.59,57.14l0-13.88-6.8,11.44h-2.42l-6.77-11.14V57.14h-5V34H124l8.66,14.37L141.15,34h4.4l.06,23.13Z"/><path class="cls-1" d="M169.76,52.18H159l-2,5h-5.49L161.79,34h5.29l10.34,23.13H171.8Zm-1.69-4.06-3.67-8.86-3.67,8.86Z"/><path class="cls-1" d="M198,57.14l-4.46-6.44h-4.92v6.44h-5.36V34h10a12.91,12.91,0,0,1,5.34,1,7.65,7.65,0,0,1,4.71,7.37,7.54,7.54,0,0,1-4.76,7.31l5.19,7.43Zm-1.35-17.73a5.65,5.65,0,0,0-3.67-1h-4.36v8.06H193a5.6,5.6,0,0,0,3.67-1,4.19,4.19,0,0,0,0-6Z"/><path class="cls-1" d="M131.7,61.75V75h-3.07V69.57h-6V75h-3.06V61.75h3.06V67h6V61.75Z"/><path class="cls-1" d="M139.68,74.35a6.88,6.88,0,0,1-2.59-9.48,6.67,6.67,0,0,1,2.59-2.46,8.22,8.22,0,0,1,7.44,0,6.74,6.74,0,0,1,2.59,2.46,6.78,6.78,0,0,1-2.59,9.48,8.22,8.22,0,0,1-7.44,0Zm5.85-2.27a3.88,3.88,0,0,0,1.48-1.5,4.75,4.75,0,0,0,0-4.4,3.88,3.88,0,0,0-1.48-1.5,4.45,4.45,0,0,0-4.25,0,3.88,3.88,0,0,0-1.48,1.5,4.75,4.75,0,0,0,0,4.4,3.88,3.88,0,0,0,1.48,1.5,4.45,4.45,0,0,0,4.25,0Z"/><path class="cls-1" d="M163.91,62.34a4.75,4.75,0,0,1,2,6.77,4.47,4.47,0,0,1-2,1.67,7.53,7.53,0,0,1-3.06.57h-2.67V75h-3.07V61.75h5.74A7.36,7.36,0,0,1,163.91,62.34Zm-1.13,5.92a2.38,2.38,0,0,0,0-3.41,3.21,3.21,0,0,0-2.1-.6h-2.5v4.6h2.5A3.21,3.21,0,0,0,162.78,68.26Z"/><path class="cls-1" d="M171.06,61.75h3.07V72.51h6.65V75h-9.72Z"/><path class="cls-1" d="M185.23,61.75h3.07V75h-3.07Z"/><path class="cls-1" d="M195.11,74.81a7,7,0,0,1-2.35-1.11l1-2.31a7.14,7.14,0,0,0,2,1,7.64,7.64,0,0,0,2.34.38,3.76,3.76,0,0,0,1.94-.39,1.19,1.19,0,0,0,.62-1,1,1,0,0,0-.37-.78,2.59,2.59,0,0,0-1-.5,16,16,0,0,0-1.56-.42,21.34,21.34,0,0,1-2.48-.72,4,4,0,0,1-1.66-1.16,3.11,3.11,0,0,1-.69-2.12,3.67,3.67,0,0,1,.63-2.09,4.22,4.22,0,0,1,1.88-1.49,7.82,7.82,0,0,1,3.08-.55,9.8,9.8,0,0,1,2.48.31,7.14,7.14,0,0,1,2.12.87L202.27,65a7.38,7.38,0,0,0-3.68-1,3.5,3.5,0,0,0-1.9.41,1.29,1.29,0,0,0-.62,1.1,1.09,1.09,0,0,0,.71,1,11.65,11.65,0,0,0,2.17.65,21.34,21.34,0,0,1,2.48.72A4.13,4.13,0,0,1,203.09,69a3.06,3.06,0,0,1,.69,2.11,3.61,3.61,0,0,1-.63,2.07,4.3,4.3,0,0,1-1.91,1.49,7.84,7.84,0,0,1-3.09.55A10.69,10.69,0,0,1,195.11,74.81Z"/><polygon class="cls-1" points="213.3 25.02 208.24 25.02 199.81 25.02 199.81 29.4 208.24 29.4 208.24 75.01 213.3 75.01 213.3 29.4 221.72 29.4 221.72 25.02 213.3 25.02"/></svg>